HIERARCHY
ROOT hip
{
  OFFSET 0 0 0
  CHANNELS 6 Xposition Yposition Zposition Zrotation Yrotation Xrotation
  JOINT abdomen
  {
    OFFSET 0 20.6881 -0.73152
    CHANNELS 3 Zrotation Xrotation Yrotation
    JOINT chest
    {
      OFFSET 0 11.7043 -0.48768
      CHANNELS 3 Zrotation Xrotation Yrotation
      JOINT neck
      {
        OFFSET 0 22.1894 -2.19456
        CHANNELS 3 Zrotation Xrotation Yrotation
        JOINT head
        {
          OFFSET -0.24384 7.07133 1.2192
          CHANNELS 3 Zrotation Xrotation Yrotation
          JOINT leftEye
          {
            OFFSET 4.14528 8.04674 8.04672
            CHANNELS 3 Zrotation Xrotation Yrotation
            End Site
            {
              OFFSET 1 0 0
            }
          }
          JOINT rightEye
          {
            OFFSET -3.6576 8.04674 8.04672
            CHANNELS 3 Zrotation Xrotation Yrotation
            End Site
            {
              OFFSET 1 0 0
            }
          }
        }
      }
      JOINT rCollar
      {
        OFFSET -2.68224 19.2634 -4.8768
        CHANNELS 3 Zrotation Xrotation Yrotation
        JOINT rShldr
        {
          OFFSET -8.77824 -1.95073 1.46304
          CHANNELS 3 Zrotation Xrotation Yrotation
          JOINT rForeArm
          {
            OFFSET -28.1742 -1.7115 0.48768
            CHANNELS 3 Zrotation Xrotation Yrotation
            JOINT rHand
            {
              OFFSET -22.5879 0.773209 7.07136
              CHANNELS 3 Zrotation Xrotation Yrotation
              JOINT rThumb1
              {
                OFFSET -1.2192 -0.487915 3.41376
                CHANNELS 3 Zrotation Xrotation Yrotation
                JOINT rThumb2
                {
                  OFFSET -3.37035 -0.52449 3.41376
                  CHANNELS 3 Zrotation Xrotation Yrotation
                  End Site
                  {
                    OFFSET -1.78271 -1.18214 1.43049
                  }
                }
              }
              JOINT rIndex1
              {
                OFFSET -7.75947 0.938293 5.60832
                CHANNELS 3 Zrotation Xrotation Yrotation
                JOINT rIndex2
                {
                  OFFSET -2.54057 -0.884171 1.56538
                  CHANNELS 3 Zrotation Xrotation Yrotation
                  End Site
                  {
                    OFFSET -1.62519 -0.234802 1.16502
                  }
                }
              }
              JOINT rMid1
              {
                OFFSET -8.24714 1.18213 3.41376
                CHANNELS 3 Zrotation Xrotation Yrotation
                JOINT rMid2
                {
                  OFFSET -3.10165 -0.590103 1.0647
                  CHANNELS 3 Zrotation Xrotation Yrotation
                  End Site
                  {
                    OFFSET -2.48547 -0.328903 0.83742
                  }
                }
              }
              JOINT rRing1
              {
                OFFSET -8.82822 0.546677 1.51678
                CHANNELS 3 Zrotation Xrotation Yrotation
                JOINT rRing2
                {
                  OFFSET -2.60934 -0.819778 -0.0198488
                  CHANNELS 3 Zrotation Xrotation Yrotation
                  End Site
                  {
                    OFFSET -2.33842 -0.294052 0.168128
                  }
                }
              }
              JOINT rPinky1
              {
                OFFSET -8.27202 -0.0477905 -0.4584
                CHANNELS 3 Zrotation Xrotation Yrotation
                JOINT rPinky2
                {
                  OFFSET -1.82734 -0.647385 -0.700984
                  CHANNELS 3 Zrotation Xrotation Yrotation
                  End Site
                  {
                    OFFSET -1.69225 -0.51767 -0.607171
                  }
                }
              }
            }
          }
        }
      }
      JOINT lCollar
      {
        OFFSET 2.68224 19.2634 -4.8768
        CHANNELS 3 Zrotation Xrotation Yrotation
        JOINT lShldr
        {
          OFFSET 8.77824 -1.95073 1.46304
          CHANNELS 3 Zrotation Xrotation Yrotation
          JOINT lForeArm
          {
            OFFSET 28.1742 -1.7115 0.48768
            CHANNELS 3 Zrotation Xrotation Yrotation
            JOINT lHand
            {
              OFFSET 22.5879 0.773209 7.07136
              CHANNELS 3 Zrotation Xrotation Yrotation
              JOINT lThumb1
              {
                OFFSET 1.2192 -0.487915 3.41376
                CHANNELS 3 Zrotation Xrotation Yrotation
                JOINT lThumb2
                {
                  OFFSET 3.37035 -0.52449 3.41376
                  CHANNELS 3 Zrotation Xrotation Yrotation
                  End Site
                  {
                    OFFSET 1.78271 -1.18214 1.43049
                  }
                }
              }
              JOINT lIndex1
              {
                OFFSET 7.75947 0.938293 5.60832
                CHANNELS 3 Zrotation Xrotation Yrotation
                JOINT lIndex2
                {
                  OFFSET 2.54057 -0.884171 1.56538
                  CHANNELS 3 Zrotation Xrotation Yrotation
                  End Site
                  {
                    OFFSET 1.62519 -0.234802 1.16502
                  }
                }
              }
              JOINT lMid1
              {
                OFFSET 8.24714 1.18213 3.41376
                CHANNELS 3 Zrotation Xrotation Yrotation
                JOINT lMid2
                {
                  OFFSET 3.10165 -0.590103 1.0647
                  CHANNELS 3 Zrotation Xrotation Yrotation
                  End Site
                  {
                    OFFSET 2.48547 -0.328903 0.83742
                  }
                }
              }
              JOINT lRing1
              {
                OFFSET 8.82822 0.546677 1.51678
                CHANNELS 3 Zrotation Xrotation Yrotation
                JOINT lRing2
                {
                  OFFSET 2.60934 -0.819778 -0.0198488
                  CHANNELS 3 Zrotation Xrotation Yrotation
                  End Site
                  {
                    OFFSET 2.33842 -0.294052 0.168128
                  }
                }
              }
              JOINT lPinky1
              {
                OFFSET 8.27202 -0.0477905 -0.4584
                CHANNELS 3 Zrotation Xrotation Yrotation
                JOINT lPinky2
                {
                  OFFSET 1.82734 -0.647385 -0.700984
                  CHANNELS 3 Zrotation Xrotation Yrotation
                  End Site
                  {
                    OFFSET 1.69225 -0.51767 -0.607171
                  }
                }
              }
            }
          }
        }
      }
    }
  }
  JOINT rButtock
  {
    OFFSET -8.77824 4.35084 1.2192
    CHANNELS 3 Zrotation Xrotation Yrotation
    JOINT rThigh
    {
      OFFSET 0 -1.70687 -2.19456
      CHANNELS 3 Zrotation Xrotation Yrotation
      JOINT rShin
      {
        OFFSET 0 -36.8199 0.73152
        CHANNELS 3 Zrotation Xrotation Yrotation
        JOINT rFoot
        {
          OFFSET 0.73152 -45.1104 -5.12064
          CHANNELS 3 Zrotation Xrotation Yrotation
          End Site
          {
            OFFSET -1.1221 -3.69964 12.103
          }
        }
      }
    }
  }
  JOINT lButtock
  {
    OFFSET 8.77824 4.35084 1.2192
    CHANNELS 3 Zrotation Xrotation Yrotation
    JOINT lThigh
    {
      OFFSET 0 -1.70687 -2.19456
      CHANNELS 3 Zrotation Xrotation Yrotation
      JOINT lShin
      {
        OFFSET 0 -36.8199 0.73152
        CHANNELS 3 Zrotation Xrotation Yrotation
        JOINT lFoot
        {
          OFFSET -0.73152 -45.1104 -5.12064
          CHANNELS 3 Zrotation Xrotation Yrotation
          End Site
          {
            OFFSET 1.1221 -3.69964 12.103
          }
        }
      }
    }
  }
}
MOTION
Frames:	4
Frame Time:	0.03333
7.678368501365185 67.02592968940735 44.191539101302624 8.073948860168457 -0.5693986415863037 2.547307014465332 4.774046897888184 15.739738464355469 -5.699394226074219 -0.21762824058532715 -9.646100997924805 -1.7976783514022827 -3.4770734310150146 9.615543365478516 3.635964870452881 2.1272852420806885 -27.734243392944336 6.422342777252197 0.026737486943602562 -0.8020131587982178 1.0851224660873413 -0.1718611866235733 0.44858694076538086 0.5997918844223022 -0.1685824692249298 1.2443253993988037 0.6039422154426575 62.62971496582031 26.20245933532715 -19.121912002563477 -27.726219177246094 -26.988492965698242 63.92853927612305 1.6847304105758667 4.856976509094238 2.084566354751587 -0.5405251979827881 0.34508976340293884 -0.3801685869693756 -0.42174476385116577 -0.655369758605957 0.9362977743148804 1.6363823413848877 1.7142168283462524 0.33773019909858704 7.459596633911133 5.026109218597412 0.703780472278595 -0.012357905507087708 -0.07316292822360992 -0.913183331489563 3.0123841762542725 0.44009196758270264 0.42282599210739136 0.021038463339209557 0.30013397336006165 -1.2940092086791992 9.524445533752441 0.8866647481918335 1.211428165435791 0.18882958590984344 -0.47738388180732727 0.0010366057977080345 1.546308994293213 -1.272004246711731 0.23868651688098907 1.1578607559204102 0.9837180376052856 -0.007766151335090399 -42.403465270996094 10.350712776184082 -44.63425064086914 28.29853057861328 -31.032508850097656 -68.53547668457031 -1.1048362255096436 -16.841154098510742 2.2484467029571533 0.5176507234573364 0.743009090423584 -0.2784406244754791 1.3655215501785278 1.6440426111221313 0.6735613942146301 -0.6929899454116821 0.32238924503326416 -0.49277833104133606 -7.782318115234375 5.395589828491211 -0.2126726657152176 0.4000074863433838 -0.565883994102478 0.25537434220314026 -2.3593592643737793 0.360785573720932 -0.10835392028093338 0.31406983733177185 -0.9795133471488953 -0.16072607040405273 -9.685266494750977 0.6961143016815186 0.46929678320884705 0.9990686774253845 -0.00837938953191042 -0.11045190691947937 -2.279604434967041 -0.8038759827613831 -0.8527849912643433 0.27480870485305786 0.34515535831451416 0.003739063162356615 -16.451879501342773 -52.84342956542969 -20.12620735168457 2.362827777862549 69.70604705810547 -1.4073903560638428 -4.077721118927002 -13.035231590270996 -14.552678108215332 -0.09054616093635559 0.2677876055240631 0.23406165838241577 22.888011932373047 -33.843894958496094 16.847618103027344 168.45867919921875 78.91128540039062 -169.7439727783203 0.6389681100845337 -8.646073341369629 6.322835445404053
10.728668980300426 67.15815663337708 47.24082704633474 9.766490936279297 -2.05987548828125 0.4290420114994049 5.469484806060791 17.155967712402344 -5.3362135887146 -0.47268787026405334 -9.363229751586914 -1.708626627922058 -3.325037717819214 9.863006591796875 4.00567102432251 0.9148877859115601 -27.249134063720703 7.318646430969238 -0.1179836243391037 -0.6670212149620056 1.192728042602539 -0.6218944191932678 0.4226788282394409 0.6529503464698792 -0.1258033663034439 1.0181382894515991 0.5616044998168945 62.991703033447266 24.72087287902832 -20.570960998535156 -27.781063079833984 -26.46141242980957 64.04541015625 1.8431915044784546 5.467632293701172 2.340036630630493 -0.6303173303604126 0.07873272150754929 -0.6473230719566345 -0.5823193192481995 -0.7141808867454529 0.9463679194450378 1.4448243379592896 1.809406042098999 0.1754971146583557 7.323636531829834 4.906030654907227 0.5840053558349609 0.3228069841861725 -0.25424736738204956 -0.9553635716438293 2.8689117431640625 0.5109984874725342 0.2614728808403015 0.3165016174316406 0.010144987143576145 -1.084002137184143 9.672502517700195 1.064470648765564 1.6940226554870605 0.06385289877653122 -0.21207110583782196 0.2154066264629364 1.3461517095565796 -1.4860053062438965 0.26393675804138184 1.1009167432785034 0.8594962358474731 0.1213490441441536 -43.828704833984375 7.0470781326293945 -39.90016174316406 27.902145385742188 -30.146339416503906 -66.94773864746094 -1.064130425453186 -16.099733352661133 1.9328198432922363 0.588878870010376 0.7724359631538391 -0.21048319339752197 1.3536297082901 1.696441411972046 0.6553741097450256 -0.4653652012348175 0.11221666634082794 -0.5649536848068237 -7.706442356109619 5.254173278808594 -0.26033127307891846 0.46714261174201965 -0.5225761532783508 0.10034739226102829 -2.490424633026123 0.298928439617157 -0.27384307980537415 0.17759373784065247 -0.9255356192588806 0.037667497992515564 -9.610517501831055 0.8100603818893433 0.3767201006412506 0.8500879406929016 -0.30195698142051697 -0.11930776387453079 -2.083468198776245 -0.6529533863067627 -0.8485077619552612 0.40073689818382263 0.17927400767803192 -0.09400061517953873 -13.816232681274414 -48.967525482177734 -16.7584285736084 2.292295455932617 68.0612564086914 -1.3670825958251953 -3.297898530960083 -13.848979949951172 -13.65178108215332 -0.14049255847930908 0.11467640101909637 0.33371496200561523 29.733850479125977 -40.55360794067383 22.955936431884766 173.1213836669922 70.7942886352539 -174.17274475097656 -0.060183968394994736 -8.413315773010254 4.120891094207764
13.701924867928028 66.78420901298523 49.944706074893475 12.316532135009766 -2.212791919708252 -2.4374935626983643 5.164419651031494 18.88095474243164 -4.590245723724365 -0.6004636883735657 -9.107421875 -1.569732427597046 -3.595649242401123 10.561503410339355 3.490008592605591 -0.01579517312347889 -26.769681930541992 7.118661403656006 -0.12349409610033035 -0.42542752623558044 1.4009422063827515 -0.9982749819755554 0.33836352825164795 0.6669479608535767 -0.02131500467658043 0.5898734331130981 0.4674869477748871 61.353538513183594 22.56311798095703 -19.833740234375 -27.629638671875 -25.797758102416992 63.75579071044922 1.8249258995056152 9.006109237670898 2.9329845905303955 -0.5784298777580261 -0.10023123025894165 -0.9080244898796082 -0.560724675655365 -0.8540601134300232 0.8165895938873291 1.161454439163208 1.6387578248977661 -0.08177278935909271 7.257874488830566 4.917859077453613 0.41074973344802856 0.48497846722602844 -0.4620298743247986 -0.8374977111816406 2.8029181957244873 0.6066448092460632 0.0028224235866218805 0.6865299940109253 -0.271884024143219 -0.9580873250961304 9.802041053771973 1.2612247467041016 2.251960515975952 -0.22794140875339508 0.022017376497387886 0.4821949601173401 1.2168786525726318 -1.6807725429534912 0.18096843361854553 1.0584903955459595 0.6190674901008606 0.35069143772125244 -45.22433090209961 7.0106120109558105 -33.03424072265625 27.64976692199707 -30.235305786132812 -67.01815032958984 -0.6601172685623169 -19.589780807495117 2.31615948677063 0.586955726146698 0.6551237106323242 -0.188968226313591 1.4110811948776245 1.6516835689544678 0.6181254982948303 -0.11876923590898514 -0.034480020403862 -0.354276180267334 -7.624858379364014 5.378507137298584 -0.41293901205062866 0.5684658288955688 -0.39232519268989563 -0.10271012783050537 -2.7380146980285645 0.27427196502685547 -0.42014017701148987 0.015241519547998905 -0.8602412343025208 0.22673070430755615 -9.515766143798828 0.7418027520179749 0.19850333034992218 0.677172064781189 -0.4829551875591278 -0.2011491060256958 -1.9691880941390991 -0.48813730478286743 -0.7116777896881104 0.44632554054260254 0.10656879842281342 -0.193684920668602 -12.983236312866211 -45.07263946533203 -14.587902069091797 1.7817792892456055 65.76506042480469 -0.8037421703338623 -1.897562026977539 -14.318682670593262 -11.42062759399414 -0.32947883009910583 0.050270214676856995 0.33500319719314575 38.10683059692383 -46.219749450683594 30.333974838256836 175.0443572998047 63.522674560546875 -176.08425903320312 -0.5789424180984497 -8.742630004882812 2.5881216526031494
16.427130438387394 66.02263450622559 52.1149693056941 14.606457710266113 -4.763779640197754 -6.166442394256592 4.30181360244751 20.90733528137207 -3.342792272567749 -0.8589283227920532 -8.915240287780762 -1.4582120180130005 -3.911356210708618 11.304312705993652 2.831327438354492 -0.6991891860961914 -26.35456085205078 6.945735454559326 0.006160375662147999 -0.1281183958053589 1.7112431526184082 -1.3859673738479614 0.2382812798023224 0.613667368888855 0.14475488662719727 0.1124422624707222 0.31609609723091125 58.6485481262207 21.31397247314453 -18.016496658325195 -27.592849731445312 -25.277671813964844 63.38511657714844 1.578960657119751 12.952104568481445 3.441453456878662 -0.320400595664978 -0.11970898509025574 -1.0755048990249634 -0.3895251452922821 -0.8502517342567444 0.5666759610176086 0.9363371133804321 1.4252848625183105 -0.33155733346939087 7.192018985748291 4.981123447418213 0.22995182871818542 0.5265089869499207 -0.6045988202095032 -0.6960105299949646 2.845457077026367 0.7827385663986206 -0.3177649974822998 0.8930824398994446 -0.47993868589401245 -0.9547786712646484 9.94998836517334 1.396273136138916 2.6669933795928955 -0.5254327654838562 0.10264293849468231 0.8570708632469177 1.0704338550567627 -1.8533350229263306 0.12078843265771866 1.033225655555725 0.43621695041656494 0.5636452436447144 -46.55289840698242 7.8960113525390625 -26.195755004882812 27.455076217651367 -30.26891326904297 -67.13069152832031 0.036840058863162994 -23.7708740234375 2.82071852684021 0.44719135761260986 0.5822728276252747 -0.2093748301267624 1.4629536867141724 1.4646990299224854 0.5956922769546509 0.16606231033802032 -0.054780375212430954 -0.023183880373835564 -7.514401435852051 5.538188934326172 -0.6855905652046204 0.6261147856712341 -0.14075033366680145 -0.23602518439292908 -2.8832085132598877 0.2721517086029053 -0.5503005981445312 -0.16242460906505585 -0.7313172817230225 0.38188624382019043 -9.369797706604004 0.7278547883033752 0.03992423415184021 0.4247667193412781 -0.4826347529888153 -0.29494982957839966 -1.974359393119812 -0.38782644271850586 -0.6185121536254883 0.25342318415641785 0.23112283647060394 -0.2278478443622589 -12.782752990722656 -41.04917526245117 -12.580636978149414 1.2108582258224487 62.824363708496094 -0.011038342490792274 -0.3914737105369568 -14.609410285949707 -8.517317771911621 -0.5758138298988342 0.11049743741750717 0.2695663273334503 48.15305709838867 -50.66365432739258 39.20096206665039 176.01121520996094 57.59450912475586 -177.18064880371094 -0.941504180431366 -9.369317054748535 1.4262843132019043
